<?xml version="1.0" encoding="utf-8" standalone="no"?>
<!DOCTYPE svg PUBLIC "-//W3C//DTD SVG 1.1//EN"
  "http://www.w3.org/Graphics/SVG/1.1/DTD/svg11.dtd">
<!-- Created with matplotlib (https://matplotlib.org/) -->
<svg height="190.989399pt" version="1.1" viewBox="0 0 281.423375 190.989399" width="281.423375pt" xmlns="http://www.w3.org/2000/svg" xmlns:xlink="http://www.w3.org/1999/xlink">
 <defs>
  <style type="text/css">
*{stroke-linecap:butt;stroke-linejoin:round;white-space:pre;}
  </style>
 </defs>
 <g id="figure_1">
  <g id="patch_1">
   <path d="M 0 190.989399 
L 281.423375 190.989399 
L 281.423375 -0 
L 0 -0 
z
" style="fill:none;"/>
  </g>
  <g id="axes_1">
   <g id="patch_2">
    <path d="M 30.359375 81.637824 
L 281.423375 81.637824 
L 281.423375 11.106304 
L 30.359375 11.106304 
z
" style="fill:none;"/>
   </g>
   <g id="matplotlib.axis_1">
    <g id="xtick_1">
     <g id="line2d_1">
      <path clip-path="url(#pfa9ea22d0e)" d="M 32.261375 81.637824 
L 32.261375 11.106304 
" style="fill:none;stroke:#4c4c4c;stroke-dasharray:0.5,0.825;stroke-dashoffset:0;stroke-opacity:0.5;stroke-width:0.5;"/>
     </g>
     <g id="line2d_2">
      <defs>
       <path d="M 0 0 
L 0 3.5 
" id="m27334f467b" style="stroke:#000000;stroke-width:0.8;"/>
      </defs>
      <g>
       <use style="stroke:#000000;stroke-width:0.8;" x="32.261375" xlink:href="#m27334f467b" y="81.637824"/>
      </g>
     </g>
    </g>
    <g id="xtick_2">
     <g id="line2d_3">
      <path clip-path="url(#pfa9ea22d0e)" d="M 79.811375 81.637824 
L 79.811375 11.106304 
" style="fill:none;stroke:#4c4c4c;stroke-dasharray:0.5,0.825;stroke-dashoffset:0;stroke-opacity:0.5;stroke-width:0.5;"/>
     </g>
     <g id="line2d_4">
      <g>
       <use style="stroke:#000000;stroke-width:0.8;" x="79.811375" xlink:href="#m27334f467b" y="81.637824"/>
      </g>
     </g>
    </g>
    <g id="xtick_3">
     <g id="line2d_5">
      <path clip-path="url(#pfa9ea22d0e)" d="M 127.361375 81.637824 
L 127.361375 11.106304 
" style="fill:none;stroke:#4c4c4c;stroke-dasharray:0.5,0.825;stroke-dashoffset:0;stroke-opacity:0.5;stroke-width:0.5;"/>
     </g>
     <g id="line2d_6">
      <g>
       <use style="stroke:#000000;stroke-width:0.8;" x="127.361375" xlink:href="#m27334f467b" y="81.637824"/>
      </g>
     </g>
    </g>
    <g id="xtick_4">
     <g id="line2d_7">
      <path clip-path="url(#pfa9ea22d0e)" d="M 174.911375 81.637824 
L 174.911375 11.106304 
" style="fill:none;stroke:#4c4c4c;stroke-dasharray:0.5,0.825;stroke-dashoffset:0;stroke-opacity:0.5;stroke-width:0.5;"/>
     </g>
     <g id="line2d_8">
      <g>
       <use style="stroke:#000000;stroke-width:0.8;" x="174.911375" xlink:href="#m27334f467b" y="81.637824"/>
      </g>
     </g>
    </g>
    <g id="xtick_5">
     <g id="line2d_9">
      <path clip-path="url(#pfa9ea22d0e)" d="M 222.461375 81.637824 
L 222.461375 11.106304 
" style="fill:none;stroke:#4c4c4c;stroke-dasharray:0.5,0.825;stroke-dashoffset:0;stroke-opacity:0.5;stroke-width:0.5;"/>
     </g>
     <g id="line2d_10">
      <g>
       <use style="stroke:#000000;stroke-width:0.8;" x="222.461375" xlink:href="#m27334f467b" y="81.637824"/>
      </g>
     </g>
    </g>
    <g id="xtick_6">
     <g id="line2d_11">
      <path clip-path="url(#pfa9ea22d0e)" d="M 270.011375 81.637824 
L 270.011375 11.106304 
" style="fill:none;stroke:#4c4c4c;stroke-dasharray:0.5,0.825;stroke-dashoffset:0;stroke-opacity:0.5;stroke-width:0.5;"/>
     </g>
     <g id="line2d_12">
      <g>
       <use style="stroke:#000000;stroke-width:0.8;" x="270.011375" xlink:href="#m27334f467b" y="81.637824"/>
      </g>
     </g>
    </g>
   </g>
   <g id="matplotlib.axis_2">
    <g id="ytick_1">
     <g id="line2d_13">
      <path clip-path="url(#pfa9ea22d0e)" d="M 30.359375 70.795134 
L 281.423375 70.795134 
" style="fill:none;stroke:#4c4c4c;stroke-dasharray:0.5,0.825;stroke-dashoffset:0;stroke-opacity:0.5;stroke-width:0.5;"/>
     </g>
     <g id="line2d_14">
      <defs>
       <path d="M 0 0 
L -3.5 0 
" id="mae0d867d31" style="stroke:#000000;stroke-width:0.8;"/>
      </defs>
      <g>
       <use style="stroke:#000000;stroke-width:0.8;" x="30.359375" xlink:href="#mae0d867d31" y="70.795134"/>
      </g>
     </g>
     <g id="text_1">
      <!-- 20 -->
      <defs>
       <path d="M 19.1875 8.296875 
L 53.609375 8.296875 
L 53.609375 0 
L 7.328125 0 
L 7.328125 8.296875 
Q 12.9375 14.109375 22.625 23.890625 
Q 32.328125 33.6875 34.8125 36.53125 
Q 39.546875 41.84375 41.421875 45.53125 
Q 43.3125 49.21875 43.3125 52.78125 
Q 43.3125 58.59375 39.234375 62.25 
Q 35.15625 65.921875 28.609375 65.921875 
Q 23.96875 65.921875 18.8125 64.3125 
Q 13.671875 62.703125 7.8125 59.421875 
L 7.8125 69.390625 
Q 13.765625 71.78125 18.9375 73 
Q 24.125 74.21875 28.421875 74.21875 
Q 39.75 74.21875 46.484375 68.546875 
Q 53.21875 62.890625 53.21875 53.421875 
Q 53.21875 48.921875 51.53125 44.890625 
Q 49.859375 40.875 45.40625 35.40625 
Q 44.1875 33.984375 37.640625 27.21875 
Q 31.109375 20.453125 19.1875 8.296875 
z
" id="DejaVuSans-50"/>
       <path d="M 31.78125 66.40625 
Q 24.171875 66.40625 20.328125 58.90625 
Q 16.5 51.421875 16.5 36.375 
Q 16.5 21.390625 20.328125 13.890625 
Q 24.171875 6.390625 31.78125 6.390625 
Q 39.453125 6.390625 43.28125 13.890625 
Q 47.125 21.390625 47.125 36.375 
Q 47.125 51.421875 43.28125 58.90625 
Q 39.453125 66.40625 31.78125 66.40625 
z
M 31.78125 74.21875 
Q 44.046875 74.21875 50.515625 64.515625 
Q 56.984375 54.828125 56.984375 36.375 
Q 56.984375 17.96875 50.515625 8.265625 
Q 44.046875 -1.421875 31.78125 -1.421875 
Q 19.53125 -1.421875 13.0625 8.265625 
Q 6.59375 17.96875 6.59375 36.375 
Q 6.59375 54.828125 13.0625 64.515625 
Q 19.53125 74.21875 31.78125 74.21875 
z
" id="DejaVuSans-48"/>
      </defs>
      <g transform="translate(13.624375 73.074665)scale(0.06 -0.06)">
       <use xlink:href="#DejaVuSans-50"/>
       <use x="63.623047" xlink:href="#DejaVuSans-48"/>
      </g>
     </g>
    </g>
    <g id="ytick_2">
     <g id="line2d_15">
      <path clip-path="url(#pfa9ea22d0e)" d="M 30.359375 56.674421 
L 281.423375 56.674421 
" style="fill:none;stroke:#4c4c4c;stroke-dasharray:0.5,0.825;stroke-dashoffset:0;stroke-opacity:0.5;stroke-width:0.5;"/>
     </g>
     <g id="line2d_16">
      <g>
       <use style="stroke:#000000;stroke-width:0.8;" x="30.359375" xlink:href="#mae0d867d31" y="56.674421"/>
      </g>
     </g>
     <g id="text_2">
      <!-- 40 -->
      <defs>
       <path d="M 37.796875 64.3125 
L 12.890625 25.390625 
L 37.796875 25.390625 
z
M 35.203125 72.90625 
L 47.609375 72.90625 
L 47.609375 25.390625 
L 58.015625 25.390625 
L 58.015625 17.1875 
L 47.609375 17.1875 
L 47.609375 0 
L 37.796875 0 
L 37.796875 17.1875 
L 4.890625 17.1875 
L 4.890625 26.703125 
z
" id="DejaVuSans-52"/>
      </defs>
      <g transform="translate(13.624375 58.953952)scale(0.06 -0.06)">
       <use xlink:href="#DejaVuSans-52"/>
       <use x="63.623047" xlink:href="#DejaVuSans-48"/>
      </g>
     </g>
    </g>
    <g id="ytick_3">
     <g id="line2d_17">
      <path clip-path="url(#pfa9ea22d0e)" d="M 30.359375 42.553708 
L 281.423375 42.553708 
" style="fill:none;stroke:#4c4c4c;stroke-dasharray:0.5,0.825;stroke-dashoffset:0;stroke-opacity:0.5;stroke-width:0.5;"/>
     </g>
     <g id="line2d_18">
      <g>
       <use style="stroke:#000000;stroke-width:0.8;" x="30.359375" xlink:href="#mae0d867d31" y="42.553708"/>
      </g>
     </g>
     <g id="text_3">
      <!-- 60 -->
      <defs>
       <path d="M 33.015625 40.375 
Q 26.375 40.375 22.484375 35.828125 
Q 18.609375 31.296875 18.609375 23.390625 
Q 18.609375 15.53125 22.484375 10.953125 
Q 26.375 6.390625 33.015625 6.390625 
Q 39.65625 6.390625 43.53125 10.953125 
Q 47.40625 15.53125 47.40625 23.390625 
Q 47.40625 31.296875 43.53125 35.828125 
Q 39.65625 40.375 33.015625 40.375 
z
M 52.59375 71.296875 
L 52.59375 62.3125 
Q 48.875 64.0625 45.09375 64.984375 
Q 41.3125 65.921875 37.59375 65.921875 
Q 27.828125 65.921875 22.671875 59.328125 
Q 17.53125 52.734375 16.796875 39.40625 
Q 19.671875 43.65625 24.015625 45.921875 
Q 28.375 48.1875 33.59375 48.1875 
Q 44.578125 48.1875 50.953125 41.515625 
Q 57.328125 34.859375 57.328125 23.390625 
Q 57.328125 12.15625 50.6875 5.359375 
Q 44.046875 -1.421875 33.015625 -1.421875 
Q 20.359375 -1.421875 13.671875 8.265625 
Q 6.984375 17.96875 6.984375 36.375 
Q 6.984375 53.65625 15.1875 63.9375 
Q 23.390625 74.21875 37.203125 74.21875 
Q 40.921875 74.21875 44.703125 73.484375 
Q 48.484375 72.75 52.59375 71.296875 
z
" id="DejaVuSans-54"/>
      </defs>
      <g transform="translate(13.624375 44.833239)scale(0.06 -0.06)">
       <use xlink:href="#DejaVuSans-54"/>
       <use x="63.623047" xlink:href="#DejaVuSans-48"/>
      </g>
     </g>
    </g>
    <g id="ytick_4">
     <g id="line2d_19">
      <path clip-path="url(#pfa9ea22d0e)" d="M 30.359375 28.432995 
L 281.423375 28.432995 
" style="fill:none;stroke:#4c4c4c;stroke-dasharray:0.5,0.825;stroke-dashoffset:0;stroke-opacity:0.5;stroke-width:0.5;"/>
     </g>
     <g id="line2d_20">
      <g>
       <use style="stroke:#000000;stroke-width:0.8;" x="30.359375" xlink:href="#mae0d867d31" y="28.432995"/>
      </g>
     </g>
     <g id="text_4">
      <!-- 80 -->
      <defs>
       <path d="M 31.78125 34.625 
Q 24.75 34.625 20.71875 30.859375 
Q 16.703125 27.09375 16.703125 20.515625 
Q 16.703125 13.921875 20.71875 10.15625 
Q 24.75 6.390625 31.78125 6.390625 
Q 38.8125 6.390625 42.859375 10.171875 
Q 46.921875 13.96875 46.921875 20.515625 
Q 46.921875 27.09375 42.890625 30.859375 
Q 38.875 34.625 31.78125 34.625 
z
M 21.921875 38.8125 
Q 15.578125 40.375 12.03125 44.71875 
Q 8.5 49.078125 8.5 55.328125 
Q 8.5 64.0625 14.71875 69.140625 
Q 20.953125 74.21875 31.78125 74.21875 
Q 42.671875 74.21875 48.875 69.140625 
Q 55.078125 64.0625 55.078125 55.328125 
Q 55.078125 49.078125 51.53125 44.71875 
Q 48 40.375 41.703125 38.8125 
Q 48.828125 37.15625 52.796875 32.3125 
Q 56.78125 27.484375 56.78125 20.515625 
Q 56.78125 9.90625 50.3125 4.234375 
Q 43.84375 -1.421875 31.78125 -1.421875 
Q 19.734375 -1.421875 13.25 4.234375 
Q 6.78125 9.90625 6.78125 20.515625 
Q 6.78125 27.484375 10.78125 32.3125 
Q 14.796875 37.15625 21.921875 38.8125 
z
M 18.3125 54.390625 
Q 18.3125 48.734375 21.84375 45.5625 
Q 25.390625 42.390625 31.78125 42.390625 
Q 38.140625 42.390625 41.71875 45.5625 
Q 45.3125 48.734375 45.3125 54.390625 
Q 45.3125 60.0625 41.71875 63.234375 
Q 38.140625 66.40625 31.78125 66.40625 
Q 25.390625 66.40625 21.84375 63.234375 
Q 18.3125 60.0625 18.3125 54.390625 
z
" id="DejaVuSans-56"/>
      </defs>
      <g transform="translate(13.624375 30.712526)scale(0.06 -0.06)">
       <use xlink:href="#DejaVuSans-56"/>
       <use x="63.623047" xlink:href="#DejaVuSans-48"/>
      </g>
     </g>
    </g>
    <g id="ytick_5">
     <g id="line2d_21">
      <path clip-path="url(#pfa9ea22d0e)" d="M 30.359375 14.312282 
L 281.423375 14.312282 
" style="fill:none;stroke:#4c4c4c;stroke-dasharray:0.5,0.825;stroke-dashoffset:0;stroke-opacity:0.5;stroke-width:0.5;"/>
     </g>
     <g id="line2d_22">
      <g>
       <use style="stroke:#000000;stroke-width:0.8;" x="30.359375" xlink:href="#mae0d867d31" y="14.312282"/>
      </g>
     </g>
     <g id="text_5">
      <!-- 100 -->
      <defs>
       <path d="M 12.40625 8.296875 
L 28.515625 8.296875 
L 28.515625 63.921875 
L 10.984375 60.40625 
L 10.984375 69.390625 
L 28.421875 72.90625 
L 38.28125 72.90625 
L 38.28125 8.296875 
L 54.390625 8.296875 
L 54.390625 0 
L 12.40625 0 
z
" id="DejaVuSans-49"/>
      </defs>
      <g transform="translate(9.806875 16.591814)scale(0.06 -0.06)">
       <use xlink:href="#DejaVuSans-49"/>
       <use x="63.623047" xlink:href="#DejaVuSans-48"/>
       <use x="127.246094" xlink:href="#DejaVuSans-48"/>
      </g>
     </g>
    </g>
    <g id="text_6">
     <!-- accuracy (%) -->
     <defs>
      <path d="M 34.28125 27.484375 
Q 23.390625 27.484375 19.1875 25 
Q 14.984375 22.515625 14.984375 16.5 
Q 14.984375 11.71875 18.140625 8.90625 
Q 21.296875 6.109375 26.703125 6.109375 
Q 34.1875 6.109375 38.703125 11.40625 
Q 43.21875 16.703125 43.21875 25.484375 
L 43.21875 27.484375 
z
M 52.203125 31.203125 
L 52.203125 0 
L 43.21875 0 
L 43.21875 8.296875 
Q 40.140625 3.328125 35.546875 0.953125 
Q 30.953125 -1.421875 24.3125 -1.421875 
Q 15.921875 -1.421875 10.953125 3.296875 
Q 6 8.015625 6 15.921875 
Q 6 25.140625 12.171875 29.828125 
Q 18.359375 34.515625 30.609375 34.515625 
L 43.21875 34.515625 
L 43.21875 35.40625 
Q 43.21875 41.609375 39.140625 45 
Q 35.0625 48.390625 27.6875 48.390625 
Q 23 48.390625 18.546875 47.265625 
Q 14.109375 46.140625 10.015625 43.890625 
L 10.015625 52.203125 
Q 14.9375 54.109375 19.578125 55.046875 
Q 24.21875 56 28.609375 56 
Q 40.484375 56 46.34375 49.84375 
Q 52.203125 43.703125 52.203125 31.203125 
z
" id="DejaVuSans-97"/>
      <path d="M 48.78125 52.59375 
L 48.78125 44.1875 
Q 44.96875 46.296875 41.140625 47.34375 
Q 37.3125 48.390625 33.40625 48.390625 
Q 24.65625 48.390625 19.8125 42.84375 
Q 14.984375 37.3125 14.984375 27.296875 
Q 14.984375 17.28125 19.8125 11.734375 
Q 24.65625 6.203125 33.40625 6.203125 
Q 37.3125 6.203125 41.140625 7.25 
Q 44.96875 8.296875 48.78125 10.40625 
L 48.78125 2.09375 
Q 45.015625 0.34375 40.984375 -0.53125 
Q 36.96875 -1.421875 32.421875 -1.421875 
Q 20.0625 -1.421875 12.78125 6.34375 
Q 5.515625 14.109375 5.515625 27.296875 
Q 5.515625 40.671875 12.859375 48.328125 
Q 20.21875 56 33.015625 56 
Q 37.15625 56 41.109375 55.140625 
Q 45.0625 54.296875 48.78125 52.59375 
z
" id="DejaVuSans-99"/>
      <path d="M 8.5 21.578125 
L 8.5 54.6875 
L 17.484375 54.6875 
L 17.484375 21.921875 
Q 17.484375 14.15625 20.5 10.265625 
Q 23.53125 6.390625 29.59375 6.390625 
Q 36.859375 6.390625 41.078125 11.03125 
Q 45.3125 15.671875 45.3125 23.6875 
L 45.3125 54.6875 
L 54.296875 54.6875 
L 54.296875 0 
L 45.3125 0 
L 45.3125 8.40625 
Q 42.046875 3.421875 37.71875 1 
Q 33.40625 -1.421875 27.6875 -1.421875 
Q 18.265625 -1.421875 13.375 4.4375 
Q 8.5 10.296875 8.5 21.578125 
z
M 31.109375 56 
z
" id="DejaVuSans-117"/>
      <path d="M 41.109375 46.296875 
Q 39.59375 47.171875 37.8125 47.578125 
Q 36.03125 48 33.890625 48 
Q 26.265625 48 22.1875 43.046875 
Q 18.109375 38.09375 18.109375 28.8125 
L 18.109375 0 
L 9.078125 0 
L 9.078125 54.6875 
L 18.109375 54.6875 
L 18.109375 46.1875 
Q 20.953125 51.171875 25.484375 53.578125 
Q 30.03125 56 36.53125 56 
Q 37.453125 56 38.578125 55.875 
Q 39.703125 55.765625 41.0625 55.515625 
z
" id="DejaVuSans-114"/>
      <path d="M 32.171875 -5.078125 
Q 28.375 -14.84375 24.75 -17.8125 
Q 21.140625 -20.796875 15.09375 -20.796875 
L 7.90625 -20.796875 
L 7.90625 -13.28125 
L 13.1875 -13.28125 
Q 16.890625 -13.28125 18.9375 -11.515625 
Q 21 -9.765625 23.484375 -3.21875 
L 25.09375 0.875 
L 2.984375 54.6875 
L 12.5 54.6875 
L 29.59375 11.921875 
L 46.6875 54.6875 
L 56.203125 54.6875 
z
" id="DejaVuSans-121"/>
      <path id="DejaVuSans-32"/>
      <path d="M 31 75.875 
Q 24.46875 64.65625 21.28125 53.65625 
Q 18.109375 42.671875 18.109375 31.390625 
Q 18.109375 20.125 21.3125 9.0625 
Q 24.515625 -2 31 -13.1875 
L 23.1875 -13.1875 
Q 15.875 -1.703125 12.234375 9.375 
Q 8.59375 20.453125 8.59375 31.390625 
Q 8.59375 42.28125 12.203125 53.3125 
Q 15.828125 64.359375 23.1875 75.875 
z
" id="DejaVuSans-40"/>
      <path d="M 72.703125 32.078125 
Q 68.453125 32.078125 66.03125 28.46875 
Q 63.625 24.859375 63.625 18.40625 
Q 63.625 12.0625 66.03125 8.421875 
Q 68.453125 4.78125 72.703125 4.78125 
Q 76.859375 4.78125 79.265625 8.421875 
Q 81.6875 12.0625 81.6875 18.40625 
Q 81.6875 24.8125 79.265625 28.4375 
Q 76.859375 32.078125 72.703125 32.078125 
z
M 72.703125 38.28125 
Q 80.421875 38.28125 84.953125 32.90625 
Q 89.5 27.546875 89.5 18.40625 
Q 89.5 9.28125 84.9375 3.921875 
Q 80.375 -1.421875 72.703125 -1.421875 
Q 64.890625 -1.421875 60.34375 3.921875 
Q 55.8125 9.28125 55.8125 18.40625 
Q 55.8125 27.59375 60.375 32.9375 
Q 64.9375 38.28125 72.703125 38.28125 
z
M 22.3125 68.015625 
Q 18.109375 68.015625 15.6875 64.375 
Q 13.28125 60.75 13.28125 54.390625 
Q 13.28125 47.953125 15.671875 44.328125 
Q 18.0625 40.71875 22.3125 40.71875 
Q 26.5625 40.71875 28.96875 44.328125 
Q 31.390625 47.953125 31.390625 54.390625 
Q 31.390625 60.6875 28.953125 64.34375 
Q 26.515625 68.015625 22.3125 68.015625 
z
M 66.40625 74.21875 
L 74.21875 74.21875 
L 28.609375 -1.421875 
L 20.796875 -1.421875 
z
M 22.3125 74.21875 
Q 30.03125 74.21875 34.609375 68.875 
Q 39.203125 63.53125 39.203125 54.390625 
Q 39.203125 45.171875 34.640625 39.84375 
Q 30.078125 34.515625 22.3125 34.515625 
Q 14.546875 34.515625 10.03125 39.859375 
Q 5.515625 45.21875 5.515625 54.390625 
Q 5.515625 63.484375 10.046875 68.84375 
Q 14.59375 74.21875 22.3125 74.21875 
z
" id="DejaVuSans-37"/>
      <path d="M 8.015625 75.875 
L 15.828125 75.875 
Q 23.140625 64.359375 26.78125 53.3125 
Q 30.421875 42.28125 30.421875 31.390625 
Q 30.421875 20.453125 26.78125 9.375 
Q 23.140625 -1.703125 15.828125 -13.1875 
L 8.015625 -13.1875 
Q 14.5 -2 17.703125 9.0625 
Q 20.90625 20.125 20.90625 31.390625 
Q 20.90625 42.671875 17.703125 53.65625 
Q 14.5 64.65625 8.015625 75.875 
z
" id="DejaVuSans-41"/>
     </defs>
     <g transform="translate(4.559062 66.052533)rotate(-90)scale(0.06 -0.06)">
      <use xlink:href="#DejaVuSans-97"/>
      <use x="61.279297" xlink:href="#DejaVuSans-99"/>
      <use x="116.259766" xlink:href="#DejaVuSans-99"/>
      <use x="171.240234" xlink:href="#DejaVuSans-117"/>
      <use x="234.619141" xlink:href="#DejaVuSans-114"/>
      <use x="275.732422" xlink:href="#DejaVuSans-97"/>
      <use x="337.011719" xlink:href="#DejaVuSans-99"/>
      <use x="391.992188" xlink:href="#DejaVuSans-121"/>
      <use x="451.171875" xlink:href="#DejaVuSans-32"/>
      <use x="482.958984" xlink:href="#DejaVuSans-40"/>
      <use x="521.972656" xlink:href="#DejaVuSans-37"/>
      <use x="616.992188" xlink:href="#DejaVuSans-41"/>
     </g>
    </g>
   </g>
   <g id="line2d_23">
    <path clip-path="url(#pfa9ea22d0e)" d="M 41.771375 16.612164 
L 51.281375 16.812125 
L 60.791375 22.22141 
L 70.301375 17.805879 
L 79.811375 18.025178 
L 89.321375 18.958797 
L 98.831375 31.075225 
L 117.851375 14.489114 
L 127.361375 14.312282 
L 146.381375 15.70377 
L 155.891375 14.539547 
L 184.421375 27.569153 
L 193.931375 16.483256 
L 203.441375 17.187896 
L 212.951375 17.980792 
L 222.461375 15.572015 
L 231.971375 15.690408 
L 241.481375 14.360458 
L 260.501375 14.312282 
L 270.011375 14.312282 
" style="fill:none;stroke:#ca0020;stroke-linecap:square;stroke-width:0.5;"/>
    <defs>
     <path d="M 0 2 
C 0.530406 2 1.03916 1.789267 1.414214 1.414214 
C 1.789267 1.03916 2 0.530406 2 0 
C 2 -0.530406 1.789267 -1.03916 1.414214 -1.414214 
C 1.03916 -1.789267 0.530406 -2 0 -2 
C -0.530406 -2 -1.03916 -1.789267 -1.414214 -1.414214 
C -1.789267 -1.03916 -2 -0.530406 -2 0 
C -2 0.530406 -1.789267 1.03916 -1.414214 1.414214 
C -1.03916 1.789267 -0.530406 2 0 2 
z
" id="m2923ebe481"/>
    </defs>
    <g clip-path="url(#pfa9ea22d0e)">
     <use style="fill:#ca0020;" x="41.771375" xlink:href="#m2923ebe481" y="16.612164"/>
     <use style="fill:#ca0020;" x="51.281375" xlink:href="#m2923ebe481" y="16.812125"/>
     <use style="fill:#ca0020;" x="60.791375" xlink:href="#m2923ebe481" y="22.22141"/>
     <use style="fill:#ca0020;" x="70.301375" xlink:href="#m2923ebe481" y="17.805879"/>
     <use style="fill:#ca0020;" x="79.811375" xlink:href="#m2923ebe481" y="18.025178"/>
     <use style="fill:#ca0020;" x="89.321375" xlink:href="#m2923ebe481" y="18.958797"/>
     <use style="fill:#ca0020;" x="98.831375" xlink:href="#m2923ebe481" y="31.075225"/>
     <use style="fill:#ca0020;" x="117.851375" xlink:href="#m2923ebe481" y="14.489114"/>
     <use style="fill:#ca0020;" x="127.361375" xlink:href="#m2923ebe481" y="14.312282"/>
     <use style="fill:#ca0020;" x="146.381375" xlink:href="#m2923ebe481" y="15.70377"/>
     <use style="fill:#ca0020;" x="155.891375" xlink:href="#m2923ebe481" y="14.539547"/>
     <use style="fill:#ca0020;" x="184.421375" xlink:href="#m2923ebe481" y="27.569153"/>
     <use style="fill:#ca0020;" x="193.931375" xlink:href="#m2923ebe481" y="16.483256"/>
     <use style="fill:#ca0020;" x="203.441375" xlink:href="#m2923ebe481" y="17.187896"/>
     <use style="fill:#ca0020;" x="212.951375" xlink:href="#m2923ebe481" y="17.980792"/>
     <use style="fill:#ca0020;" x="222.461375" xlink:href="#m2923ebe481" y="15.572015"/>
     <use style="fill:#ca0020;" x="231.971375" xlink:href="#m2923ebe481" y="15.690408"/>
     <use style="fill:#ca0020;" x="241.481375" xlink:href="#m2923ebe481" y="14.360458"/>
     <use style="fill:#ca0020;" x="260.501375" xlink:href="#m2923ebe481" y="14.312282"/>
     <use style="fill:#ca0020;" x="270.011375" xlink:href="#m2923ebe481" y="14.312282"/>
    </g>
   </g>
   <g id="line2d_24">
    <path clip-path="url(#pfa9ea22d0e)" d="M 41.771375 46.024053 
L 51.281375 77.726707 
L 60.791375 64.438392 
L 70.301375 78.431846 
L 79.811375 54.273217 
L 89.321375 46.656186 
L 98.831375 47.000008 
L 117.851375 36.832639 
L 127.361375 62.944457 
L 146.381375 47.465922 
L 155.891375 36.08424 
L 184.421375 64.535502 
L 193.931375 67.242738 
L 203.441375 72.220002 
L 212.951375 62.545721 
L 222.461375 47.230287 
L 231.971375 60.551675 
L 241.481375 39.396501 
L 260.501375 29.480929 
L 270.011375 57.01785 
" style="fill:none;stroke:#6a3d9a;stroke-linecap:square;stroke-width:0.5;"/>
    <defs>
     <path d="M 0 2 
C 0.530406 2 1.03916 1.789267 1.414214 1.414214 
C 1.789267 1.03916 2 0.530406 2 0 
C 2 -0.530406 1.789267 -1.03916 1.414214 -1.414214 
C 1.03916 -1.789267 0.530406 -2 0 -2 
C -0.530406 -2 -1.03916 -1.789267 -1.414214 -1.414214 
C -1.789267 -1.03916 -2 -0.530406 -2 0 
C -2 0.530406 -1.789267 1.03916 -1.414214 1.414214 
C -1.03916 1.789267 -0.530406 2 0 2 
z
" id="m5ee9f70327"/>
    </defs>
    <g clip-path="url(#pfa9ea22d0e)">
     <use style="fill:#6a3d9a;" x="41.771375" xlink:href="#m5ee9f70327" y="46.024053"/>
     <use style="fill:#6a3d9a;" x="51.281375" xlink:href="#m5ee9f70327" y="77.726707"/>
     <use style="fill:#6a3d9a;" x="60.791375" xlink:href="#m5ee9f70327" y="64.438392"/>
     <use style="fill:#6a3d9a;" x="70.301375" xlink:href="#m5ee9f70327" y="78.431846"/>
     <use style="fill:#6a3d9a;" x="79.811375" xlink:href="#m5ee9f70327" y="54.273217"/>
     <use style="fill:#6a3d9a;" x="89.321375" xlink:href="#m5ee9f70327" y="46.656186"/>
     <use style="fill:#6a3d9a;" x="98.831375" xlink:href="#m5ee9f70327" y="47.000008"/>
     <use style="fill:#6a3d9a;" x="117.851375" xlink:href="#m5ee9f70327" y="36.832639"/>
     <use style="fill:#6a3d9a;" x="127.361375" xlink:href="#m5ee9f70327" y="62.944457"/>
     <use style="fill:#6a3d9a;" x="146.381375" xlink:href="#m5ee9f70327" y="47.465922"/>
     <use style="fill:#6a3d9a;" x="155.891375" xlink:href="#m5ee9f70327" y="36.08424"/>
     <use style="fill:#6a3d9a;" x="184.421375" xlink:href="#m5ee9f70327" y="64.535502"/>
     <use style="fill:#6a3d9a;" x="193.931375" xlink:href="#m5ee9f70327" y="67.242738"/>
     <use style="fill:#6a3d9a;" x="203.441375" xlink:href="#m5ee9f70327" y="72.220002"/>
     <use style="fill:#6a3d9a;" x="212.951375" xlink:href="#m5ee9f70327" y="62.545721"/>
     <use style="fill:#6a3d9a;" x="222.461375" xlink:href="#m5ee9f70327" y="47.230287"/>
     <use style="fill:#6a3d9a;" x="231.971375" xlink:href="#m5ee9f70327" y="60.551675"/>
     <use style="fill:#6a3d9a;" x="241.481375" xlink:href="#m5ee9f70327" y="39.396501"/>
     <use style="fill:#6a3d9a;" x="260.501375" xlink:href="#m5ee9f70327" y="29.480929"/>
     <use style="fill:#6a3d9a;" x="270.011375" xlink:href="#m5ee9f70327" y="57.01785"/>
    </g>
   </g>
   <g id="patch_3">
    <path d="M 30.359375 81.637824 
L 30.359375 11.106304 
" style="fill:none;stroke:#000000;stroke-linecap:square;stroke-linejoin:miter;stroke-width:0.8;"/>
   </g>
   <g id="patch_4">
    <path d="M 30.359375 81.637824 
L 281.423375 81.637824 
" style="fill:none;stroke:#000000;stroke-linecap:square;stroke-linejoin:miter;stroke-width:0.8;"/>
   </g>
   <g id="legend_1">
    <g id="patch_5">
     <path d="M 77.386063 10.606875 
L 234.396688 10.606875 
Q 235.596688 10.606875 235.596688 9.406875 
L 235.596688 1.2 
Q 235.596688 -0 234.396688 -0 
L 77.386063 -0 
Q 76.186063 -0 76.186063 1.2 
L 76.186063 9.406875 
Q 76.186063 10.606875 77.386063 10.606875 
z
" style="fill:#ffffff;stroke:#ffffff;stroke-linejoin:miter;stroke-width:0.5;"/>
    </g>
    <g id="line2d_25">
     <path d="M 78.586063 4.859062 
L 90.586063 4.859062 
" style="fill:none;stroke:#ca0020;stroke-linecap:square;stroke-width:0.5;"/>
    </g>
    <g id="line2d_26">
     <g>
      <use style="fill:#ca0020;" x="84.586063" xlink:href="#m2923ebe481" y="4.859062"/>
     </g>
    </g>
    <g id="text_7">
     <!-- person-specific model -->
     <defs>
      <path d="M 18.109375 8.203125 
L 18.109375 -20.796875 
L 9.078125 -20.796875 
L 9.078125 54.6875 
L 18.109375 54.6875 
L 18.109375 46.390625 
Q 20.953125 51.265625 25.265625 53.625 
Q 29.59375 56 35.59375 56 
Q 45.5625 56 51.78125 48.09375 
Q 58.015625 40.1875 58.015625 27.296875 
Q 58.015625 14.40625 51.78125 6.484375 
Q 45.5625 -1.421875 35.59375 -1.421875 
Q 29.59375 -1.421875 25.265625 0.953125 
Q 20.953125 3.328125 18.109375 8.203125 
z
M 48.6875 27.296875 
Q 48.6875 37.203125 44.609375 42.84375 
Q 40.53125 48.484375 33.40625 48.484375 
Q 26.265625 48.484375 22.1875 42.84375 
Q 18.109375 37.203125 18.109375 27.296875 
Q 18.109375 17.390625 22.1875 11.75 
Q 26.265625 6.109375 33.40625 6.109375 
Q 40.53125 6.109375 44.609375 11.75 
Q 48.6875 17.390625 48.6875 27.296875 
z
" id="DejaVuSans-112"/>
      <path d="M 56.203125 29.59375 
L 56.203125 25.203125 
L 14.890625 25.203125 
Q 15.484375 15.921875 20.484375 11.0625 
Q 25.484375 6.203125 34.421875 6.203125 
Q 39.59375 6.203125 44.453125 7.46875 
Q 49.3125 8.734375 54.109375 11.28125 
L 54.109375 2.78125 
Q 49.265625 0.734375 44.1875 -0.34375 
Q 39.109375 -1.421875 33.890625 -1.421875 
Q 20.796875 -1.421875 13.15625 6.1875 
Q 5.515625 13.8125 5.515625 26.8125 
Q 5.515625 40.234375 12.765625 48.109375 
Q 20.015625 56 32.328125 56 
Q 43.359375 56 49.78125 48.890625 
Q 56.203125 41.796875 56.203125 29.59375 
z
M 47.21875 32.234375 
Q 47.125 39.59375 43.09375 43.984375 
Q 39.0625 48.390625 32.421875 48.390625 
Q 24.90625 48.390625 20.390625 44.140625 
Q 15.875 39.890625 15.1875 32.171875 
z
" id="DejaVuSans-101"/>
      <path d="M 44.28125 53.078125 
L 44.28125 44.578125 
Q 40.484375 46.53125 36.375 47.5 
Q 32.28125 48.484375 27.875 48.484375 
Q 21.1875 48.484375 17.84375 46.4375 
Q 14.5 44.390625 14.5 40.28125 
Q 14.5 37.15625 16.890625 35.375 
Q 19.28125 33.59375 26.515625 31.984375 
L 29.59375 31.296875 
Q 39.15625 29.25 43.1875 25.515625 
Q 47.21875 21.78125 47.21875 15.09375 
Q 47.21875 7.46875 41.1875 3.015625 
Q 35.15625 -1.421875 24.609375 -1.421875 
Q 20.21875 -1.421875 15.453125 -0.5625 
Q 10.6875 0.296875 5.421875 2 
L 5.421875 11.28125 
Q 10.40625 8.6875 15.234375 7.390625 
Q 20.0625 6.109375 24.8125 6.109375 
Q 31.15625 6.109375 34.5625 8.28125 
Q 37.984375 10.453125 37.984375 14.40625 
Q 37.984375 18.0625 35.515625 20.015625 
Q 33.0625 21.96875 24.703125 23.78125 
L 21.578125 24.515625 
Q 13.234375 26.265625 9.515625 29.90625 
Q 5.8125 33.546875 5.8125 39.890625 
Q 5.8125 47.609375 11.28125 51.796875 
Q 16.75 56 26.8125 56 
Q 31.78125 56 36.171875 55.265625 
Q 40.578125 54.546875 44.28125 53.078125 
z
" id="DejaVuSans-115"/>
      <path d="M 30.609375 48.390625 
Q 23.390625 48.390625 19.1875 42.75 
Q 14.984375 37.109375 14.984375 27.296875 
Q 14.984375 17.484375 19.15625 11.84375 
Q 23.34375 6.203125 30.609375 6.203125 
Q 37.796875 6.203125 41.984375 11.859375 
Q 46.1875 17.53125 46.1875 27.296875 
Q 46.1875 37.015625 41.984375 42.703125 
Q 37.796875 48.390625 30.609375 48.390625 
z
M 30.609375 56 
Q 42.328125 56 49.015625 48.375 
Q 55.71875 40.765625 55.71875 27.296875 
Q 55.71875 13.875 49.015625 6.21875 
Q 42.328125 -1.421875 30.609375 -1.421875 
Q 18.84375 -1.421875 12.171875 6.21875 
Q 5.515625 13.875 5.515625 27.296875 
Q 5.515625 40.765625 12.171875 48.375 
Q 18.84375 56 30.609375 56 
z
" id="DejaVuSans-111"/>
      <path d="M 54.890625 33.015625 
L 54.890625 0 
L 45.90625 0 
L 45.90625 32.71875 
Q 45.90625 40.484375 42.875 44.328125 
Q 39.84375 48.1875 33.796875 48.1875 
Q 26.515625 48.1875 22.3125 43.546875 
Q 18.109375 38.921875 18.109375 30.90625 
L 18.109375 0 
L 9.078125 0 
L 9.078125 54.6875 
L 18.109375 54.6875 
L 18.109375 46.1875 
Q 21.34375 51.125 25.703125 53.5625 
Q 30.078125 56 35.796875 56 
Q 45.21875 56 50.046875 50.171875 
Q 54.890625 44.34375 54.890625 33.015625 
z
" id="DejaVuSans-110"/>
      <path d="M 4.890625 31.390625 
L 31.203125 31.390625 
L 31.203125 23.390625 
L 4.890625 23.390625 
z
" id="DejaVuSans-45"/>
      <path d="M 9.421875 54.6875 
L 18.40625 54.6875 
L 18.40625 0 
L 9.421875 0 
z
M 9.421875 75.984375 
L 18.40625 75.984375 
L 18.40625 64.59375 
L 9.421875 64.59375 
z
" id="DejaVuSans-105"/>
      <path d="M 37.109375 75.984375 
L 37.109375 68.5 
L 28.515625 68.5 
Q 23.6875 68.5 21.796875 66.546875 
Q 19.921875 64.59375 19.921875 59.515625 
L 19.921875 54.6875 
L 34.71875 54.6875 
L 34.71875 47.703125 
L 19.921875 47.703125 
L 19.921875 0 
L 10.890625 0 
L 10.890625 47.703125 
L 2.296875 47.703125 
L 2.296875 54.6875 
L 10.890625 54.6875 
L 10.890625 58.5 
Q 10.890625 67.625 15.140625 71.796875 
Q 19.390625 75.984375 28.609375 75.984375 
z
" id="DejaVuSans-102"/>
      <path d="M 52 44.1875 
Q 55.375 50.25 60.0625 53.125 
Q 64.75 56 71.09375 56 
Q 79.640625 56 84.28125 50.015625 
Q 88.921875 44.046875 88.921875 33.015625 
L 88.921875 0 
L 79.890625 0 
L 79.890625 32.71875 
Q 79.890625 40.578125 77.09375 44.375 
Q 74.3125 48.1875 68.609375 48.1875 
Q 61.625 48.1875 57.5625 43.546875 
Q 53.515625 38.921875 53.515625 30.90625 
L 53.515625 0 
L 44.484375 0 
L 44.484375 32.71875 
Q 44.484375 40.625 41.703125 44.40625 
Q 38.921875 48.1875 33.109375 48.1875 
Q 26.21875 48.1875 22.15625 43.53125 
Q 18.109375 38.875 18.109375 30.90625 
L 18.109375 0 
L 9.078125 0 
L 9.078125 54.6875 
L 18.109375 54.6875 
L 18.109375 46.1875 
Q 21.1875 51.21875 25.484375 53.609375 
Q 29.78125 56 35.6875 56 
Q 41.65625 56 45.828125 52.96875 
Q 50 49.953125 52 44.1875 
z
" id="DejaVuSans-109"/>
      <path d="M 45.40625 46.390625 
L 45.40625 75.984375 
L 54.390625 75.984375 
L 54.390625 0 
L 45.40625 0 
L 45.40625 8.203125 
Q 42.578125 3.328125 38.25 0.953125 
Q 33.9375 -1.421875 27.875 -1.421875 
Q 17.96875 -1.421875 11.734375 6.484375 
Q 5.515625 14.40625 5.515625 27.296875 
Q 5.515625 40.1875 11.734375 48.09375 
Q 17.96875 56 27.875 56 
Q 33.9375 56 38.25 53.625 
Q 42.578125 51.265625 45.40625 46.390625 
z
M 14.796875 27.296875 
Q 14.796875 17.390625 18.875 11.75 
Q 22.953125 6.109375 30.078125 6.109375 
Q 37.203125 6.109375 41.296875 11.75 
Q 45.40625 17.390625 45.40625 27.296875 
Q 45.40625 37.203125 41.296875 42.84375 
Q 37.203125 48.484375 30.078125 48.484375 
Q 22.953125 48.484375 18.875 42.84375 
Q 14.796875 37.203125 14.796875 27.296875 
z
" id="DejaVuSans-100"/>
      <path d="M 9.421875 75.984375 
L 18.40625 75.984375 
L 18.40625 0 
L 9.421875 0 
z
" id="DejaVuSans-108"/>
     </defs>
     <g transform="translate(95.386063 6.959062)scale(0.06 -0.06)">
      <use xlink:href="#DejaVuSans-112"/>
      <use x="63.476562" xlink:href="#DejaVuSans-101"/>
      <use x="125" xlink:href="#DejaVuSans-114"/>
      <use x="166.113281" xlink:href="#DejaVuSans-115"/>
      <use x="218.212891" xlink:href="#DejaVuSans-111"/>
      <use x="279.394531" xlink:href="#DejaVuSans-110"/>
      <use x="342.773438" xlink:href="#DejaVuSans-45"/>
      <use x="378.857422" xlink:href="#DejaVuSans-115"/>
      <use x="430.957031" xlink:href="#DejaVuSans-112"/>
      <use x="494.433594" xlink:href="#DejaVuSans-101"/>
      <use x="555.957031" xlink:href="#DejaVuSans-99"/>
      <use x="610.9375" xlink:href="#DejaVuSans-105"/>
      <use x="638.720703" xlink:href="#DejaVuSans-102"/>
      <use x="673.925781" xlink:href="#DejaVuSans-105"/>
      <use x="701.708984" xlink:href="#DejaVuSans-99"/>
      <use x="756.689453" xlink:href="#DejaVuSans-32"/>
      <use x="788.476562" xlink:href="#DejaVuSans-109"/>
      <use x="885.888672" xlink:href="#DejaVuSans-111"/>
      <use x="947.070312" xlink:href="#DejaVuSans-100"/>
      <use x="1010.546875" xlink:href="#DejaVuSans-101"/>
      <use x="1072.070312" xlink:href="#DejaVuSans-108"/>
     </g>
    </g>
    <g id="line2d_27">
     <path d="M 173.378563 4.859062 
L 185.378563 4.859062 
" style="fill:none;stroke:#6a3d9a;stroke-linecap:square;stroke-width:0.5;"/>
    </g>
    <g id="line2d_28">
     <g>
      <use style="fill:#6a3d9a;" x="179.378563" xlink:href="#m5ee9f70327" y="4.859062"/>
     </g>
    </g>
    <g id="text_8">
     <!-- generic model -->
     <defs>
      <path d="M 45.40625 27.984375 
Q 45.40625 37.75 41.375 43.109375 
Q 37.359375 48.484375 30.078125 48.484375 
Q 22.859375 48.484375 18.828125 43.109375 
Q 14.796875 37.75 14.796875 27.984375 
Q 14.796875 18.265625 18.828125 12.890625 
Q 22.859375 7.515625 30.078125 7.515625 
Q 37.359375 7.515625 41.375 12.890625 
Q 45.40625 18.265625 45.40625 27.984375 
z
M 54.390625 6.78125 
Q 54.390625 -7.171875 48.1875 -13.984375 
Q 42 -20.796875 29.203125 -20.796875 
Q 24.46875 -20.796875 20.265625 -20.09375 
Q 16.0625 -19.390625 12.109375 -17.921875 
L 12.109375 -9.1875 
Q 16.0625 -11.328125 19.921875 -12.34375 
Q 23.78125 -13.375 27.78125 -13.375 
Q 36.625 -13.375 41.015625 -8.765625 
Q 45.40625 -4.15625 45.40625 5.171875 
L 45.40625 9.625 
Q 42.625 4.78125 38.28125 2.390625 
Q 33.9375 0 27.875 0 
Q 17.828125 0 11.671875 7.65625 
Q 5.515625 15.328125 5.515625 27.984375 
Q 5.515625 40.671875 11.671875 48.328125 
Q 17.828125 56 27.875 56 
Q 33.9375 56 38.28125 53.609375 
Q 42.625 51.21875 45.40625 46.390625 
L 45.40625 54.6875 
L 54.390625 54.6875 
z
" id="DejaVuSans-103"/>
     </defs>
     <g transform="translate(190.178563 6.959062)scale(0.06 -0.06)">
      <use xlink:href="#DejaVuSans-103"/>
      <use x="63.476562" xlink:href="#DejaVuSans-101"/>
      <use x="125" xlink:href="#DejaVuSans-110"/>
      <use x="188.378906" xlink:href="#DejaVuSans-101"/>
      <use x="249.902344" xlink:href="#DejaVuSans-114"/>
      <use x="291.015625" xlink:href="#DejaVuSans-105"/>
      <use x="318.798828" xlink:href="#DejaVuSans-99"/>
      <use x="373.779297" xlink:href="#DejaVuSans-32"/>
      <use x="405.566406" xlink:href="#DejaVuSans-109"/>
      <use x="502.978516" xlink:href="#DejaVuSans-111"/>
      <use x="564.160156" xlink:href="#DejaVuSans-100"/>
      <use x="627.636719" xlink:href="#DejaVuSans-101"/>
      <use x="689.160156" xlink:href="#DejaVuSans-108"/>
     </g>
    </g>
   </g>
  </g>
  <g id="axes_2">
   <g id="patch_6">
    <path d="M 30.359375 166.275649 
L 281.423375 166.275649 
L 281.423375 95.744129 
L 30.359375 95.744129 
z
" style="fill:none;"/>
   </g>
   <g id="matplotlib.axis_3">
    <g id="xtick_7">
     <g id="line2d_29">
      <path clip-path="url(#p1f33f658b6)" d="M 32.261375 166.275649 
L 32.261375 95.744129 
" style="fill:none;stroke:#4c4c4c;stroke-dasharray:0.5,0.825;stroke-dashoffset:0;stroke-opacity:0.5;stroke-width:0.5;"/>
     </g>
     <g id="line2d_30">
      <g>
       <use style="stroke:#000000;stroke-width:0.8;" x="32.261375" xlink:href="#m27334f467b" y="166.275649"/>
      </g>
     </g>
     <g id="text_9">
      <!-- 0 -->
      <g transform="translate(30.352625 179.934711)scale(0.06 -0.06)">
       <use xlink:href="#DejaVuSans-48"/>
      </g>
     </g>
    </g>
    <g id="xtick_8">
     <g id="line2d_31">
      <path clip-path="url(#p1f33f658b6)" d="M 79.811375 166.275649 
L 79.811375 95.744129 
" style="fill:none;stroke:#4c4c4c;stroke-dasharray:0.5,0.825;stroke-dashoffset:0;stroke-opacity:0.5;stroke-width:0.5;"/>
     </g>
     <g id="line2d_32">
      <g>
       <use style="stroke:#000000;stroke-width:0.8;" x="79.811375" xlink:href="#m27334f467b" y="166.275649"/>
      </g>
     </g>
     <g id="text_10">
      <!-- 5 -->
      <defs>
       <path d="M 10.796875 72.90625 
L 49.515625 72.90625 
L 49.515625 64.59375 
L 19.828125 64.59375 
L 19.828125 46.734375 
Q 21.96875 47.46875 24.109375 47.828125 
Q 26.265625 48.1875 28.421875 48.1875 
Q 40.625 48.1875 47.75 41.5 
Q 54.890625 34.8125 54.890625 23.390625 
Q 54.890625 11.625 47.5625 5.09375 
Q 40.234375 -1.421875 26.90625 -1.421875 
Q 22.3125 -1.421875 17.546875 -0.640625 
Q 12.796875 0.140625 7.71875 1.703125 
L 7.71875 11.625 
Q 12.109375 9.234375 16.796875 8.0625 
Q 21.484375 6.890625 26.703125 6.890625 
Q 35.15625 6.890625 40.078125 11.328125 
Q 45.015625 15.765625 45.015625 23.390625 
Q 45.015625 31 40.078125 35.4375 
Q 35.15625 39.890625 26.703125 39.890625 
Q 22.75 39.890625 18.8125 39.015625 
Q 14.890625 38.140625 10.796875 36.28125 
z
" id="DejaVuSans-53"/>
      </defs>
      <g transform="translate(77.902625 179.934711)scale(0.06 -0.06)">
       <use xlink:href="#DejaVuSans-53"/>
      </g>
     </g>
    </g>
    <g id="xtick_9">
     <g id="line2d_33">
      <path clip-path="url(#p1f33f658b6)" d="M 127.361375 166.275649 
L 127.361375 95.744129 
" style="fill:none;stroke:#4c4c4c;stroke-dasharray:0.5,0.825;stroke-dashoffset:0;stroke-opacity:0.5;stroke-width:0.5;"/>
     </g>
     <g id="line2d_34">
      <g>
       <use style="stroke:#000000;stroke-width:0.8;" x="127.361375" xlink:href="#m27334f467b" y="166.275649"/>
      </g>
     </g>
     <g id="text_11">
      <!-- 10 -->
      <g transform="translate(123.543875 179.934711)scale(0.06 -0.06)">
       <use xlink:href="#DejaVuSans-49"/>
       <use x="63.623047" xlink:href="#DejaVuSans-48"/>
      </g>
     </g>
    </g>
    <g id="xtick_10">
     <g id="line2d_35">
      <path clip-path="url(#p1f33f658b6)" d="M 174.911375 166.275649 
L 174.911375 95.744129 
" style="fill:none;stroke:#4c4c4c;stroke-dasharray:0.5,0.825;stroke-dashoffset:0;stroke-opacity:0.5;stroke-width:0.5;"/>
     </g>
     <g id="line2d_36">
      <g>
       <use style="stroke:#000000;stroke-width:0.8;" x="174.911375" xlink:href="#m27334f467b" y="166.275649"/>
      </g>
     </g>
     <g id="text_12">
      <!-- 15 -->
      <g transform="translate(171.093875 179.934711)scale(0.06 -0.06)">
       <use xlink:href="#DejaVuSans-49"/>
       <use x="63.623047" xlink:href="#DejaVuSans-53"/>
      </g>
     </g>
    </g>
    <g id="xtick_11">
     <g id="line2d_37">
      <path clip-path="url(#p1f33f658b6)" d="M 222.461375 166.275649 
L 222.461375 95.744129 
" style="fill:none;stroke:#4c4c4c;stroke-dasharray:0.5,0.825;stroke-dashoffset:0;stroke-opacity:0.5;stroke-width:0.5;"/>
     </g>
     <g id="line2d_38">
      <g>
       <use style="stroke:#000000;stroke-width:0.8;" x="222.461375" xlink:href="#m27334f467b" y="166.275649"/>
      </g>
     </g>
     <g id="text_13">
      <!-- 20 -->
      <g transform="translate(218.643875 179.934711)scale(0.06 -0.06)">
       <use xlink:href="#DejaVuSans-50"/>
       <use x="63.623047" xlink:href="#DejaVuSans-48"/>
      </g>
     </g>
    </g>
    <g id="xtick_12">
     <g id="line2d_39">
      <path clip-path="url(#p1f33f658b6)" d="M 270.011375 166.275649 
L 270.011375 95.744129 
" style="fill:none;stroke:#4c4c4c;stroke-dasharray:0.5,0.825;stroke-dashoffset:0;stroke-opacity:0.5;stroke-width:0.5;"/>
     </g>
     <g id="line2d_40">
      <g>
       <use style="stroke:#000000;stroke-width:0.8;" x="270.011375" xlink:href="#m27334f467b" y="166.275649"/>
      </g>
     </g>
     <g id="text_14">
      <!-- 25 -->
      <g transform="translate(266.193875 179.934711)scale(0.06 -0.06)">
       <use xlink:href="#DejaVuSans-50"/>
       <use x="63.623047" xlink:href="#DejaVuSans-53"/>
      </g>
     </g>
    </g>
    <g id="text_15">
     <!-- subject id -->
     <defs>
      <path d="M 48.6875 27.296875 
Q 48.6875 37.203125 44.609375 42.84375 
Q 40.53125 48.484375 33.40625 48.484375 
Q 26.265625 48.484375 22.1875 42.84375 
Q 18.109375 37.203125 18.109375 27.296875 
Q 18.109375 17.390625 22.1875 11.75 
Q 26.265625 6.109375 33.40625 6.109375 
Q 40.53125 6.109375 44.609375 11.75 
Q 48.6875 17.390625 48.6875 27.296875 
z
M 18.109375 46.390625 
Q 20.953125 51.265625 25.265625 53.625 
Q 29.59375 56 35.59375 56 
Q 45.5625 56 51.78125 48.09375 
Q 58.015625 40.1875 58.015625 27.296875 
Q 58.015625 14.40625 51.78125 6.484375 
Q 45.5625 -1.421875 35.59375 -1.421875 
Q 29.59375 -1.421875 25.265625 0.953125 
Q 20.953125 3.328125 18.109375 8.203125 
L 18.109375 0 
L 9.078125 0 
L 9.078125 75.984375 
L 18.109375 75.984375 
z
" id="DejaVuSans-98"/>
      <path d="M 9.421875 54.6875 
L 18.40625 54.6875 
L 18.40625 -0.984375 
Q 18.40625 -11.421875 14.421875 -16.109375 
Q 10.453125 -20.796875 1.609375 -20.796875 
L -1.8125 -20.796875 
L -1.8125 -13.1875 
L 0.59375 -13.1875 
Q 5.71875 -13.1875 7.5625 -10.8125 
Q 9.421875 -8.453125 9.421875 -0.984375 
z
M 9.421875 75.984375 
L 18.40625 75.984375 
L 18.40625 64.59375 
L 9.421875 64.59375 
z
" id="DejaVuSans-106"/>
      <path d="M 18.3125 70.21875 
L 18.3125 54.6875 
L 36.8125 54.6875 
L 36.8125 47.703125 
L 18.3125 47.703125 
L 18.3125 18.015625 
Q 18.3125 11.328125 20.140625 9.421875 
Q 21.96875 7.515625 27.59375 7.515625 
L 36.8125 7.515625 
L 36.8125 0 
L 27.59375 0 
Q 17.1875 0 13.234375 3.875 
Q 9.28125 7.765625 9.28125 18.015625 
L 9.28125 47.703125 
L 2.6875 47.703125 
L 2.6875 54.6875 
L 9.28125 54.6875 
L 9.28125 70.21875 
z
" id="DejaVuSans-116"/>
     </defs>
     <g transform="translate(141.326375 189.741586)scale(0.06 -0.06)">
      <use xlink:href="#DejaVuSans-115"/>
      <use x="52.099609" xlink:href="#DejaVuSans-117"/>
      <use x="115.478516" xlink:href="#DejaVuSans-98"/>
      <use x="178.955078" xlink:href="#DejaVuSans-106"/>
      <use x="206.738281" xlink:href="#DejaVuSans-101"/>
      <use x="268.261719" xlink:href="#DejaVuSans-99"/>
      <use x="323.242188" xlink:href="#DejaVuSans-116"/>
      <use x="362.451172" xlink:href="#DejaVuSans-32"/>
      <use x="394.238281" xlink:href="#DejaVuSans-105"/>
      <use x="422.021484" xlink:href="#DejaVuSans-100"/>
     </g>
    </g>
   </g>
   <g id="matplotlib.axis_4">
    <g id="ytick_6">
     <g id="line2d_41">
      <path clip-path="url(#p1f33f658b6)" d="M 30.359375 161.354845 
L 281.423375 161.354845 
" style="fill:none;stroke:#4c4c4c;stroke-dasharray:0.5,0.825;stroke-dashoffset:0;stroke-opacity:0.5;stroke-width:0.5;"/>
     </g>
     <g id="line2d_42">
      <g>
       <use style="stroke:#000000;stroke-width:0.8;" x="30.359375" xlink:href="#mae0d867d31" y="161.354845"/>
      </g>
     </g>
     <g id="text_16">
      <!-- 0 -->
      <g transform="translate(17.441875 163.634376)scale(0.06 -0.06)">
       <use xlink:href="#DejaVuSans-48"/>
      </g>
     </g>
    </g>
    <g id="ytick_7">
     <g id="line2d_43">
      <path clip-path="url(#p1f33f658b6)" d="M 30.359375 144.952166 
L 281.423375 144.952166 
" style="fill:none;stroke:#4c4c4c;stroke-dasharray:0.5,0.825;stroke-dashoffset:0;stroke-opacity:0.5;stroke-width:0.5;"/>
     </g>
     <g id="line2d_44">
      <g>
       <use style="stroke:#000000;stroke-width:0.8;" x="30.359375" xlink:href="#mae0d867d31" y="144.952166"/>
      </g>
     </g>
     <g id="text_17">
      <!-- 10 -->
      <g transform="translate(13.624375 147.231697)scale(0.06 -0.06)">
       <use xlink:href="#DejaVuSans-49"/>
       <use x="63.623047" xlink:href="#DejaVuSans-48"/>
      </g>
     </g>
    </g>
    <g id="ytick_8">
     <g id="line2d_45">
      <path clip-path="url(#p1f33f658b6)" d="M 30.359375 128.549487 
L 281.423375 128.549487 
" style="fill:none;stroke:#4c4c4c;stroke-dasharray:0.5,0.825;stroke-dashoffset:0;stroke-opacity:0.5;stroke-width:0.5;"/>
     </g>
     <g id="line2d_46">
      <g>
       <use style="stroke:#000000;stroke-width:0.8;" x="30.359375" xlink:href="#mae0d867d31" y="128.549487"/>
      </g>
     </g>
     <g id="text_18">
      <!-- 20 -->
      <g transform="translate(13.624375 130.829018)scale(0.06 -0.06)">
       <use xlink:href="#DejaVuSans-50"/>
       <use x="63.623047" xlink:href="#DejaVuSans-48"/>
      </g>
     </g>
    </g>
    <g id="ytick_9">
     <g id="line2d_47">
      <path clip-path="url(#p1f33f658b6)" d="M 30.359375 112.146808 
L 281.423375 112.146808 
" style="fill:none;stroke:#4c4c4c;stroke-dasharray:0.5,0.825;stroke-dashoffset:0;stroke-opacity:0.5;stroke-width:0.5;"/>
     </g>
     <g id="line2d_48">
      <g>
       <use style="stroke:#000000;stroke-width:0.8;" x="30.359375" xlink:href="#mae0d867d31" y="112.146808"/>
      </g>
     </g>
     <g id="text_19">
      <!-- 30 -->
      <defs>
       <path d="M 40.578125 39.3125 
Q 47.65625 37.796875 51.625 33 
Q 55.609375 28.21875 55.609375 21.1875 
Q 55.609375 10.40625 48.1875 4.484375 
Q 40.765625 -1.421875 27.09375 -1.421875 
Q 22.515625 -1.421875 17.65625 -0.515625 
Q 12.796875 0.390625 7.625 2.203125 
L 7.625 11.71875 
Q 11.71875 9.328125 16.59375 8.109375 
Q 21.484375 6.890625 26.8125 6.890625 
Q 36.078125 6.890625 40.9375 10.546875 
Q 45.796875 14.203125 45.796875 21.1875 
Q 45.796875 27.640625 41.28125 31.265625 
Q 36.765625 34.90625 28.71875 34.90625 
L 20.21875 34.90625 
L 20.21875 43.015625 
L 29.109375 43.015625 
Q 36.375 43.015625 40.234375 45.921875 
Q 44.09375 48.828125 44.09375 54.296875 
Q 44.09375 59.90625 40.109375 62.90625 
Q 36.140625 65.921875 28.71875 65.921875 
Q 24.65625 65.921875 20.015625 65.03125 
Q 15.375 64.15625 9.8125 62.3125 
L 9.8125 71.09375 
Q 15.4375 72.65625 20.34375 73.4375 
Q 25.25 74.21875 29.59375 74.21875 
Q 40.828125 74.21875 47.359375 69.109375 
Q 53.90625 64.015625 53.90625 55.328125 
Q 53.90625 49.265625 50.4375 45.09375 
Q 46.96875 40.921875 40.578125 39.3125 
z
" id="DejaVuSans-51"/>
      </defs>
      <g transform="translate(13.624375 114.426339)scale(0.06 -0.06)">
       <use xlink:href="#DejaVuSans-51"/>
       <use x="63.623047" xlink:href="#DejaVuSans-48"/>
      </g>
     </g>
    </g>
    <g id="ytick_10">
     <g id="line2d_49">
      <path clip-path="url(#p1f33f658b6)" d="M 30.359375 95.744129 
L 281.423375 95.744129 
" style="fill:none;stroke:#4c4c4c;stroke-dasharray:0.5,0.825;stroke-dashoffset:0;stroke-opacity:0.5;stroke-width:0.5;"/>
     </g>
     <g id="line2d_50">
      <g>
       <use style="stroke:#000000;stroke-width:0.8;" x="30.359375" xlink:href="#mae0d867d31" y="95.744129"/>
      </g>
     </g>
     <g id="text_20">
      <!-- 40 -->
      <g transform="translate(13.624375 98.02366)scale(0.06 -0.06)">
       <use xlink:href="#DejaVuSans-52"/>
       <use x="63.623047" xlink:href="#DejaVuSans-48"/>
      </g>
     </g>
    </g>
    <g id="text_21">
     <!-- RMS error -->
     <defs>
      <path d="M 44.390625 34.1875 
Q 47.5625 33.109375 50.5625 29.59375 
Q 53.5625 26.078125 56.59375 19.921875 
L 66.609375 0 
L 56 0 
L 46.6875 18.703125 
Q 43.0625 26.03125 39.671875 28.421875 
Q 36.28125 30.8125 30.421875 30.8125 
L 19.671875 30.8125 
L 19.671875 0 
L 9.8125 0 
L 9.8125 72.90625 
L 32.078125 72.90625 
Q 44.578125 72.90625 50.734375 67.671875 
Q 56.890625 62.453125 56.890625 51.90625 
Q 56.890625 45.015625 53.6875 40.46875 
Q 50.484375 35.9375 44.390625 34.1875 
z
M 19.671875 64.796875 
L 19.671875 38.921875 
L 32.078125 38.921875 
Q 39.203125 38.921875 42.84375 42.21875 
Q 46.484375 45.515625 46.484375 51.90625 
Q 46.484375 58.296875 42.84375 61.546875 
Q 39.203125 64.796875 32.078125 64.796875 
z
" id="DejaVuSans-82"/>
      <path d="M 9.8125 72.90625 
L 24.515625 72.90625 
L 43.109375 23.296875 
L 61.8125 72.90625 
L 76.515625 72.90625 
L 76.515625 0 
L 66.890625 0 
L 66.890625 64.015625 
L 48.09375 14.015625 
L 38.1875 14.015625 
L 19.390625 64.015625 
L 19.390625 0 
L 9.8125 0 
z
" id="DejaVuSans-77"/>
      <path d="M 53.515625 70.515625 
L 53.515625 60.890625 
Q 47.90625 63.578125 42.921875 64.890625 
Q 37.9375 66.21875 33.296875 66.21875 
Q 25.25 66.21875 20.875 63.09375 
Q 16.5 59.96875 16.5 54.203125 
Q 16.5 49.359375 19.40625 46.890625 
Q 22.3125 44.4375 30.421875 42.921875 
L 36.375 41.703125 
Q 47.40625 39.59375 52.65625 34.296875 
Q 57.90625 29 57.90625 20.125 
Q 57.90625 9.515625 50.796875 4.046875 
Q 43.703125 -1.421875 29.984375 -1.421875 
Q 24.8125 -1.421875 18.96875 -0.25 
Q 13.140625 0.921875 6.890625 3.21875 
L 6.890625 13.375 
Q 12.890625 10.015625 18.65625 8.296875 
Q 24.421875 6.59375 29.984375 6.59375 
Q 38.421875 6.59375 43.015625 9.90625 
Q 47.609375 13.234375 47.609375 19.390625 
Q 47.609375 24.75 44.3125 27.78125 
Q 41.015625 30.8125 33.5 32.328125 
L 27.484375 33.5 
Q 16.453125 35.6875 11.515625 40.375 
Q 6.59375 45.0625 6.59375 53.421875 
Q 6.59375 63.09375 13.40625 68.65625 
Q 20.21875 74.21875 32.171875 74.21875 
Q 37.3125 74.21875 42.625 73.28125 
Q 47.953125 72.359375 53.515625 70.515625 
z
" id="DejaVuSans-83"/>
     </defs>
     <g transform="translate(8.376562 145.920826)rotate(-90)scale(0.06 -0.06)">
      <use xlink:href="#DejaVuSans-82"/>
      <use x="69.482422" xlink:href="#DejaVuSans-77"/>
      <use x="155.761719" xlink:href="#DejaVuSans-83"/>
      <use x="219.238281" xlink:href="#DejaVuSans-32"/>
      <use x="251.025391" xlink:href="#DejaVuSans-101"/>
      <use x="312.548828" xlink:href="#DejaVuSans-114"/>
      <use x="353.646484" xlink:href="#DejaVuSans-114"/>
      <use x="394.728516" xlink:href="#DejaVuSans-111"/>
      <use x="455.910156" xlink:href="#DejaVuSans-114"/>
     </g>
    </g>
   </g>
   <g id="line2d_51">
    <path clip-path="url(#p1f33f658b6)" d="M 41.771375 161.173358 
L 51.281375 158.899971 
L 60.791375 148.258233 
L 70.301375 155.680342 
L 79.811375 158.182043 
L 89.321375 160.672067 
L 98.831375 151.422101 
L 117.851375 160.962154 
L 127.361375 160.089752 
L 146.381375 156.067464 
L 155.891375 161.245177 
L 184.421375 159.018039 
L 193.931375 141.756383 
L 203.441375 158.789874 
L 212.951375 160.786239 
L 222.461375 157.528407 
L 231.971375 156.777177 
L 241.481375 160.877526 
L 260.501375 161.354778 
L 270.011375 161.329671 
" style="fill:none;stroke:#ca0020;stroke-linecap:square;stroke-width:0.5;"/>
    <g clip-path="url(#p1f33f658b6)">
     <use style="fill:#ca0020;" x="41.771375" xlink:href="#m2923ebe481" y="161.173358"/>
     <use style="fill:#ca0020;" x="51.281375" xlink:href="#m2923ebe481" y="158.899971"/>
     <use style="fill:#ca0020;" x="60.791375" xlink:href="#m2923ebe481" y="148.258233"/>
     <use style="fill:#ca0020;" x="70.301375" xlink:href="#m2923ebe481" y="155.680342"/>
     <use style="fill:#ca0020;" x="79.811375" xlink:href="#m2923ebe481" y="158.182043"/>
     <use style="fill:#ca0020;" x="89.321375" xlink:href="#m2923ebe481" y="160.672067"/>
     <use style="fill:#ca0020;" x="98.831375" xlink:href="#m2923ebe481" y="151.422101"/>
     <use style="fill:#ca0020;" x="117.851375" xlink:href="#m2923ebe481" y="160.962154"/>
     <use style="fill:#ca0020;" x="127.361375" xlink:href="#m2923ebe481" y="160.089752"/>
     <use style="fill:#ca0020;" x="146.381375" xlink:href="#m2923ebe481" y="156.067464"/>
     <use style="fill:#ca0020;" x="155.891375" xlink:href="#m2923ebe481" y="161.245177"/>
     <use style="fill:#ca0020;" x="184.421375" xlink:href="#m2923ebe481" y="159.018039"/>
     <use style="fill:#ca0020;" x="193.931375" xlink:href="#m2923ebe481" y="141.756383"/>
     <use style="fill:#ca0020;" x="203.441375" xlink:href="#m2923ebe481" y="158.789874"/>
     <use style="fill:#ca0020;" x="212.951375" xlink:href="#m2923ebe481" y="160.786239"/>
     <use style="fill:#ca0020;" x="222.461375" xlink:href="#m2923ebe481" y="157.528407"/>
     <use style="fill:#ca0020;" x="231.971375" xlink:href="#m2923ebe481" y="156.777177"/>
     <use style="fill:#ca0020;" x="241.481375" xlink:href="#m2923ebe481" y="160.877526"/>
     <use style="fill:#ca0020;" x="260.501375" xlink:href="#m2923ebe481" y="161.354778"/>
     <use style="fill:#ca0020;" x="270.011375" xlink:href="#m2923ebe481" y="161.329671"/>
    </g>
   </g>
   <g id="line2d_52">
    <path clip-path="url(#p1f33f658b6)" d="M 41.771375 154.039159 
L 51.281375 115.892687 
L 60.791375 133.48267 
L 70.301375 142.249525 
L 79.811375 136.368158 
L 89.321375 147.677013 
L 98.831375 139.395782 
L 117.851375 150.317948 
L 127.361375 130.049446 
L 146.381375 130.903051 
L 155.891375 142.064035 
L 184.421375 101.974267 
L 193.931375 123.311487 
L 203.441375 132.877305 
L 212.951375 125.989462 
L 222.461375 144.132781 
L 231.971375 134.152452 
L 241.481375 152.630689 
L 260.501375 135.988084 
L 270.011375 149.745438 
" style="fill:none;stroke:#6a3d9a;stroke-linecap:square;stroke-width:0.5;"/>
    <g clip-path="url(#p1f33f658b6)">
     <use style="fill:#6a3d9a;" x="41.771375" xlink:href="#m5ee9f70327" y="154.039159"/>
     <use style="fill:#6a3d9a;" x="51.281375" xlink:href="#m5ee9f70327" y="115.892687"/>
     <use style="fill:#6a3d9a;" x="60.791375" xlink:href="#m5ee9f70327" y="133.48267"/>
     <use style="fill:#6a3d9a;" x="70.301375" xlink:href="#m5ee9f70327" y="142.249525"/>
     <use style="fill:#6a3d9a;" x="79.811375" xlink:href="#m5ee9f70327" y="136.368158"/>
     <use style="fill:#6a3d9a;" x="89.321375" xlink:href="#m5ee9f70327" y="147.677013"/>
     <use style="fill:#6a3d9a;" x="98.831375" xlink:href="#m5ee9f70327" y="139.395782"/>
     <use style="fill:#6a3d9a;" x="117.851375" xlink:href="#m5ee9f70327" y="150.317948"/>
     <use style="fill:#6a3d9a;" x="127.361375" xlink:href="#m5ee9f70327" y="130.049446"/>
     <use style="fill:#6a3d9a;" x="146.381375" xlink:href="#m5ee9f70327" y="130.903051"/>
     <use style="fill:#6a3d9a;" x="155.891375" xlink:href="#m5ee9f70327" y="142.064035"/>
     <use style="fill:#6a3d9a;" x="184.421375" xlink:href="#m5ee9f70327" y="101.974267"/>
     <use style="fill:#6a3d9a;" x="193.931375" xlink:href="#m5ee9f70327" y="123.311487"/>
     <use style="fill:#6a3d9a;" x="203.441375" xlink:href="#m5ee9f70327" y="132.877305"/>
     <use style="fill:#6a3d9a;" x="212.951375" xlink:href="#m5ee9f70327" y="125.989462"/>
     <use style="fill:#6a3d9a;" x="222.461375" xlink:href="#m5ee9f70327" y="144.132781"/>
     <use style="fill:#6a3d9a;" x="231.971375" xlink:href="#m5ee9f70327" y="134.152452"/>
     <use style="fill:#6a3d9a;" x="241.481375" xlink:href="#m5ee9f70327" y="152.630689"/>
     <use style="fill:#6a3d9a;" x="260.501375" xlink:href="#m5ee9f70327" y="135.988084"/>
     <use style="fill:#6a3d9a;" x="270.011375" xlink:href="#m5ee9f70327" y="149.745438"/>
    </g>
   </g>
   <g id="patch_7">
    <path d="M 30.359375 166.275649 
L 30.359375 95.744129 
" style="fill:none;stroke:#000000;stroke-linecap:square;stroke-linejoin:miter;stroke-width:0.8;"/>
   </g>
   <g id="patch_8">
    <path d="M 30.359375 166.275649 
L 281.423375 166.275649 
" style="fill:none;stroke:#000000;stroke-linecap:square;stroke-linejoin:miter;stroke-width:0.8;"/>
   </g>
  </g>
 </g>
 <defs>
  <clipPath id="pfa9ea22d0e">
   <rect height="70.53152" width="251.064" x="30.359375" y="11.106304"/>
  </clipPath>
  <clipPath id="p1f33f658b6">
   <rect height="70.53152" width="251.064" x="30.359375" y="95.744129"/>
  </clipPath>
 </defs>
</svg>
